<?xml version="1.0" standalone="no"?>
<!DOCTYPE svg PUBLIC "-//W3C//DTD SVG 20010904//EN"
 "http://www.w3.org/TR/2001/REC-SVG-20010904/DTD/svg10.dtd">
<svg version="1.0" xmlns="http://www.w3.org/2000/svg"
 width="808.000000pt" height="568.000000pt" viewBox="0 0 808.000000 568.000000"
 preserveAspectRatio="xMidYMid meet">

<g transform="translate(0.000000,568.000000) scale(0.100000,-0.100000)"
fill="#000000" stroke="none">
<path d="M2580 5331 c-116 -36 -188 -141 -177 -259 6 -70 24 -109 73 -156 51
-50 109 -69 188 -64 252 16 312 357 82 464 -52 24 -116 30 -166 15z"/>
<path d="M3240 5331 c-181 -55 -240 -279 -108 -410 56 -55 110 -74 192 -69
252 16 312 357 82 464 -52 24 -116 30 -166 15z"/>
<path d="M3900 5331 c-99 -31 -165 -108 -177 -211 -8 -71 12 -132 64 -190 56
-62 110 -84 197 -78 127 8 216 97 224 224 6 87 -16 141 -78 197 -67 60 -152
81 -230 58z"/>
<path d="M4512 5305 c-177 -90 -175 -343 3 -438 56 -30 164 -30 221 0 168 89
179 329 20 428 -40 24 -62 30 -120 33 -61 3 -78 0 -124 -23z"/>
<path d="M5172 5305 c-177 -90 -175 -343 3 -438 55 -30 163 -29 221 1 168 87
179 328 20 427 -40 24 -62 30 -120 33 -61 3 -78 0 -124 -23z"/>
<path d="M2580 4671 c-109 -35 -180 -129 -179 -236 0 -99 49 -179 135 -221 75
-37 169 -32 240 12 159 98 148 340 -19 425 -44 23 -137 33 -177 20z"/>
<path d="M3240 4671 c-119 -39 -188 -141 -177 -259 6 -70 24 -109 73 -156 109
-106 298 -82 378 47 74 120 28 285 -97 348 -44 23 -137 33 -177 20z"/>
<path d="M3900 4671 c-134 -44 -207 -175 -170 -306 17 -61 87 -138 145 -160
108 -42 239 2 299 99 34 55 46 149 27 209 -16 47 -75 114 -124 138 -44 23
-137 33 -177 20z"/>
<path d="M4513 4645 c-177 -90 -176 -343 2 -438 56 -30 164 -30 221 0 168 89
179 329 20 428 -40 24 -62 30 -120 33 -61 3 -79 -1 -123 -23z"/>
<path d="M5172 4645 c-177 -90 -176 -343 3 -438 56 -30 164 -30 221 0 168 89
179 329 20 428 -40 24 -62 30 -120 33 -61 3 -78 0 -124 -23z"/>
<path d="M2580 4011 c-109 -35 -180 -129 -179 -236 0 -99 49 -179 135 -221 75
-37 169 -32 240 12 159 98 148 340 -19 425 -44 23 -137 33 -177 20z"/>
<path d="M3240 4011 c-109 -35 -180 -129 -179 -236 0 -99 49 -179 135 -221 75
-37 169 -32 240 12 159 98 148 340 -19 425 -44 23 -137 33 -177 20z"/>
<path d="M3900 4011 c-181 -59 -240 -279 -109 -410 111 -111 301 -90 383 42
74 120 28 285 -97 348 -44 23 -137 33 -177 20z"/>
<path d="M4513 3985 c-177 -90 -176 -343 2 -438 56 -30 164 -30 221 0 169 89
179 329 20 428 -40 24 -62 30 -120 33 -61 3 -79 -1 -123 -23z"/>
<path d="M5172 3985 c-177 -90 -175 -343 3 -438 56 -30 164 -30 221 0 168 89
179 329 20 428 -40 24 -62 30 -120 33 -61 3 -78 0 -124 -23z"/>
<path d="M2580 3351 c-109 -35 -180 -129 -179 -236 0 -99 49 -179 135 -221 75
-37 169 -32 240 12 159 98 148 340 -19 426 -44 22 -137 32 -177 19z"/>
<path d="M3240 3351 c-109 -35 -180 -129 -179 -236 0 -99 49 -179 135 -221 75
-37 169 -32 240 12 159 98 148 340 -19 425 -44 23 -137 33 -177 20z"/>
<path d="M3900 3351 c-103 -34 -166 -110 -177 -216 -11 -102 41 -196 133 -241
75 -37 169 -32 240 12 159 98 148 340 -19 425 -44 23 -137 33 -177 20z"/>
<path d="M4513 3325 c-177 -90 -176 -343 2 -438 56 -30 164 -30 221 0 169 89
179 329 20 428 -40 24 -62 30 -120 33 -61 3 -79 -1 -123 -23z"/>
<path d="M5173 3325 c-177 -89 -176 -344 1 -438 57 -30 164 -30 222 0 89 47
141 141 131 241 -6 68 -23 107 -69 152 -73 74 -190 92 -285 45z"/>
<path d="M2580 2691 c-120 -39 -188 -140 -177 -262 7 -80 46 -143 111 -184 42
-25 62 -31 125 -33 71 -3 80 -1 131 30 206 125 131 438 -109 454 -31 2 -67 0
-81 -5z"/>
<path d="M3240 2691 c-172 -56 -235 -251 -126 -394 64 -84 205 -113 306 -62
174 88 173 347 -3 436 -44 23 -137 33 -177 20z"/>
<path d="M3886 2686 c-160 -60 -215 -254 -111 -390 64 -83 205 -112 305 -61
174 88 173 347 -3 436 -52 27 -140 34 -191 15z"/>
<path d="M4525 2672 c-47 -23 -100 -73 -122 -116 -8 -16 -18 -55 -20 -88 -17
-183 168 -320 335 -248 183 79 205 331 38 435 -64 39 -168 46 -231 17z"/>
<path d="M5173 2665 c-182 -91 -175 -354 11 -441 169 -79 360 57 343 244 -6
68 -23 107 -69 152 -73 74 -190 92 -285 45z"/>
<path d="M6200 1134 c-143 -39 -233 -139 -266 -297 -28 -135 19 -294 112 -376
70 -62 139 -84 259 -85 92 -1 105 2 167 31 36 17 84 49 107 72 141 141 147
410 12 554 -94 101 -246 140 -391 101z m213 -187 c43 -33 65 -79 73 -154 13
-125 -52 -234 -148 -249 -132 -22 -214 72 -207 234 3 65 9 85 31 120 39 58 89
83 160 79 42 -2 65 -10 91 -30z"/>
<path d="M6923 1133 l-83 -4 0 -369 0 -370 90 0 90 0 0 235 c0 141 4 235 9
235 6 0 41 -56 78 -125 l68 -125 69 2 68 3 72 129 71 128 3 -241 2 -241 95 0
95 0 0 370 0 370 -80 2 c-44 1 -94 2 -112 2 -31 1 -35 -4 -119 -149 -47 -82
-90 -150 -95 -152 -5 -1 -47 64 -93 145 -47 81 -90 150 -95 154 -6 4 -20 7
-31 6 -11 -1 -57 -4 -102 -5z"/>
<path d="M270 1050 l0 -79 113 -3 112 -3 3 -287 2 -288 100 0 100 0 2 288 3
287 110 5 110 5 0 75 0 75 -327 3 -328 2 0 -80z"/>
<path d="M1111 1042 c-19 -48 -83 -211 -142 -363 -60 -151 -109 -279 -109
-282 0 -4 42 -7 94 -7 l93 0 30 83 29 82 138 3 c82 1 143 -2 150 -7 7 -6 23
-44 36 -86 l24 -75 98 0 c57 0 98 4 98 10 0 5 -56 155 -124 332 -68 178 -129
340 -137 361 l-13 37 -116 0 -115 0 -34 -88z m193 -200 c20 -57 36 -110 36
-118 0 -11 -19 -14 -85 -14 -61 0 -85 3 -85 13 0 30 84 248 91 235 4 -7 23
-60 43 -116z"/>
<path d="M1599 1123 c0 -5 -1 -39 -1 -78 l0 -70 109 -5 108 -5 3 -287 2 -288
100 0 100 0 2 288 3 287 113 3 112 3 0 79 0 80 -325 0 c-179 0 -325 -3 -326
-7z"/>
<path d="M2299 1125 c0 -3 0 -38 -1 -77 l0 -73 108 -5 109 -5 3 -287 2 -288
100 0 100 0 2 288 3 287 113 3 112 3 0 79 0 80 -325 0 c-179 0 -325 -2 -326
-5z"/>
<path d="M3060 760 l0 -370 275 0 275 0 0 75 0 75 -177 2 -178 3 0 70 0 70
153 3 152 3 0 74 0 74 -152 3 -153 3 0 65 0 65 173 3 173 2 -3 73 -3 72 -267
3 -268 2 0 -370z"/>
<path d="M3872 1118 c-7 -7 -12 -43 -12 -92 -1 -128 -18 -316 -35 -372 -18
-61 -53 -102 -95 -111 l-31 -6 3 -76 c3 -70 5 -76 26 -79 41 -6 132 28 172 64
75 68 112 178 131 385 l12 129 73 0 74 0 2 -282 3 -283 90 0 90 0 0 365 0 365
-245 3 c-183 2 -249 -1 -258 -10z"/>
<path d="M4507 1123 c-2 -5 -3 -170 -2 -368 l0 -360 273 -3 272 -2 0 75 0 75
-172 2 -173 3 0 70 0 70 153 3 152 3 0 74 0 75 -155 0 -156 0 3 68 3 67 168 3
167 2 0 75 0 75 -264 0 c-146 0 -266 -3 -269 -7z"/>
<path d="M5190 760 l0 -370 95 0 94 0 3 143 3 142 70 3 70 3 72 -146 73 -145
111 0 c85 0 110 3 106 13 -2 6 -45 86 -95 176 l-91 165 30 33 c52 59 76 119
108 266 l19 87 -97 0 -98 0 -16 -80 c-31 -157 -65 -194 -185 -195 l-77 0 -3
138 -3 137 -94 0 -95 0 0 -370z"/>
</g>
</svg>
